<svg id="Layer_1" data-name="Layer 1" xmlns="http://www.w3.org/2000/svg" viewBox="0 0 327.89 57.82"><defs><style>.cls-1{fill:#010101;}</style></defs><title>Stran22_logo</title><path class="cls-1" d="M20.8,57.78a26.67,26.67,0,0,1-12.34-2A23.43,23.43,0,0,1,0,49.44l5.5-5.77A21.72,21.72,0,0,0,12.55,49a18,18,0,0,0,8.24,1.42c3.51-.16,6.18-1.08,8-2.78a8.61,8.61,0,0,0,2.52-7.05A7.34,7.34,0,0,0,29,35.08q-2.16-1.87-7.24-2.53l-6.12-.68A21,21,0,0,1,8.8,30.06a14.65,14.65,0,0,1-4.55-3.31A13,13,0,0,1,1.6,22.31,18.52,18.52,0,0,1,.6,17Q.24,9.14,5.17,4.8T19.05,0a27.66,27.66,0,0,1,11.4,1.58,19.13,19.13,0,0,1,7.82,5.55L32.93,13a18.64,18.64,0,0,0-5.68-4.26,16.15,16.15,0,0,0-7.87-1.37c-3.3.15-5.79,1-7.45,2.48a7.62,7.62,0,0,0-2.32,6.36,7.22,7.22,0,0,0,2.29,5.34Q14,23.45,19.26,24.1l6,.76c5,.68,8.78,2.34,11.19,5a15.12,15.12,0,0,1,3.9,9.86,18.42,18.42,0,0,1-1,7.09,14.16,14.16,0,0,1-3.67,5.6,18.4,18.4,0,0,1-6.23,3.77A28.12,28.12,0,0,1,20.8,57.78Z"/><path class="cls-1" d="M65.56,56.85q-5.91,0-8.72-3.12a11.73,11.73,0,0,1-2.8-8.1V23.57H42v-8H50.2a5,5,0,0,0,3.52-1c.7-.66,1-1.85,1-3.56V1h9.52V15.57h16.8v8H64.28V48.85h16.8v8Z"/><path class="cls-1" d="M92.36,48.85h8.24V23.57H92.36v-8h18.48V26.93h.64A22.57,22.57,0,0,1,113,22.71a13.6,13.6,0,0,1,2.56-3.63,12.05,12.05,0,0,1,3.8-2.54,13.54,13.54,0,0,1,5.36-1h4.48v9.6h-8.48a9.24,9.24,0,0,0-9.92,9.72v14h14.32v8H92.36Z"/><path class="cls-1" d="M173.16,56.85a7.44,7.44,0,0,1-8.24-7.12h-.4a10.28,10.28,0,0,1-4.4,6A14.54,14.54,0,0,1,152,57.81q-6.24,0-9.92-3.28t-3.68-9.12q0-12.48,18.32-12.48H164V30.21q0-3.91-1.92-5.92t-6.24-2a11.71,11.71,0,0,0-6.32,1.52,14.35,14.35,0,0,0-4.08,3.92l-5.84-5a15.35,15.35,0,0,1,6.2-5.8q4.28-2.35,11.08-2.36,8.16,0,12.76,3.8t4.6,11.32V49.17h4.88v7.68Zm-17.68-6.08a10.33,10.33,0,0,0,6.12-1.72A5.41,5.41,0,0,0,164,44.37V38.85h-7q-8.4,0-8.4,5.28v1.6a4.29,4.29,0,0,0,1.84,3.76A8.67,8.67,0,0,0,155.48,50.77Z"/><path class="cls-1" d="M189.56,56.85V15.57H199.8v7.28h.4a15.06,15.06,0,0,1,4.2-5.8c1.89-1.62,4.52-2.44,7.88-2.44a13,13,0,0,1,9.88,4Q226,22.7,226,30.21V56.85H215.72V31.59q0-9-7.76-9a11.56,11.56,0,0,0-3,.4,8.14,8.14,0,0,0-2.6,1.25,6.39,6.39,0,0,0-1.84,2,5.83,5.83,0,0,0-.68,2.89V56.85Z"/><path class="cls-1" d="M278.17,43.48A17.89,17.89,0,0,1,275.4,53.6a9.12,9.12,0,0,1-8.1,4.2q-5.32,0-12.39-3.54c-4.7-2.35-8.1-3.53-10.17-3.53q-5.55,0-6.87,6.12H236a25.5,25.5,0,0,1,5.27-13.46q3.19-4.24,13.56-14.41a31.18,31.18,0,0,0,4.9-6.5,16,16,0,0,0,2.16-8.1,11.43,11.43,0,0,0-2.54-7.44q-2.55-3.11-7.53-3.1A13.75,13.75,0,0,0,246,5.06c-1.76.82-2.64,1.74-2.64,2.78a2.51,2.51,0,0,0,1.27,2.31,11.83,11.83,0,0,0,2.73,1.17,5.67,5.67,0,0,1,2.73,1.93,6.09,6.09,0,0,1,1.28,4.05,5.83,5.83,0,0,1-1.84,4.33,6.9,6.9,0,0,1-5,1.79,6.71,6.71,0,0,1-5.27-2.35,8.8,8.8,0,0,1-2.07-6,11.72,11.72,0,0,1,4.94-9.6q5-3.87,13.84-3.86T271,5.44q6.21,3.85,6.21,10.64a16.52,16.52,0,0,1-2.59,9.42,16.76,16.76,0,0,1-6.59,5.83,71.32,71.32,0,0,1-8.19,3.44,80.34,80.34,0,0,0-8.2,3.39A14,14,0,0,0,246,42.63a8.83,8.83,0,0,1,5.84-1.88A32.09,32.09,0,0,1,260,42a29.64,29.64,0,0,0,7.21,1.23,28.3,28.3,0,0,0,4.33-.28,6.48,6.48,0,0,0,3.2-1.6,5.69,5.69,0,0,0,1.79-3.77h.94A24.53,24.53,0,0,1,278.17,43.48Z"/><path class="cls-1" d="M327.89,43.48a17.89,17.89,0,0,1-2.77,10.12,9.11,9.11,0,0,1-8.1,4.2q-5.32,0-12.38-3.54t-10.17-3.53q-5.57,0-6.88,6.12h-1.88A25.5,25.5,0,0,1,291,43.39q3.19-4.24,13.56-14.41a31.18,31.18,0,0,0,4.9-6.5,16,16,0,0,0,2.16-8.1,11.38,11.38,0,0,0-2.54-7.44c-1.69-2.07-4.21-3.1-7.53-3.1a13.78,13.78,0,0,0-5.84,1.22c-1.76.82-2.64,1.74-2.64,2.78a2.53,2.53,0,0,0,1.27,2.31,11.72,11.72,0,0,0,2.74,1.17,5.77,5.77,0,0,1,2.73,1.93,6.14,6.14,0,0,1,1.27,4.05,5.83,5.83,0,0,1-1.84,4.33,6.87,6.87,0,0,1-5,1.79,6.71,6.71,0,0,1-5.27-2.35,8.8,8.8,0,0,1-2.07-6,11.74,11.74,0,0,1,4.94-9.6q5-3.87,13.84-3.86t15.12,3.86Q327,9.3,327,16.08a16.52,16.52,0,0,1-2.59,9.42,16.7,16.7,0,0,1-6.59,5.83,71.32,71.32,0,0,1-8.19,3.44,80.17,80.17,0,0,0-8.19,3.39,13.93,13.93,0,0,0-5.7,4.47,8.85,8.85,0,0,1,5.84-1.88A32.09,32.09,0,0,1,309.67,42a29.64,29.64,0,0,0,7.21,1.23,28.3,28.3,0,0,0,4.33-.28,6.44,6.44,0,0,0,3.2-1.6,5.69,5.69,0,0,0,1.79-3.77h.94A24.53,24.53,0,0,1,327.89,43.48Z"/></svg>